<?xml version="1.0" encoding="UTF-8"?>
<svg xmlns="http://www.w3.org/2000/svg" xmlns:xlink="http://www.w3.org/1999/xlink" width="514px" height="100px" viewBox="0 0 514 100" version="1.1">
<g id="surface1">
<path style=" stroke:none;fill-rule:nonzero;fill:rgb(0%,29.411765%,55.686275%);fill-opacity:1;" d="M 89.925781 42.875 C 89.925781 36.023438 94.785156 30.242188 106.246094 30.324219 C 114.105469 30.425781 116.5625 32.171875 116.5625 32.171875 L 113.847656 39.371094 C 111.15625 38.371094 109.398438 37.585938 105.707031 37.523438 C 102.015625 37.457031 98.71875 39.394531 99.066406 41.640625 C 99.519531 44.484375 103.726562 45.84375 107.09375 47.589844 C 110.460938 49.335938 114.324219 52.402344 114.253906 57.558594 C 114.277344 67.742188 104.117188 70.695312 97.777344 70.820312 C 91.4375 70.949219 87.554688 69.3125 84.921875 67.742188 L 87.921875 60.753906 C 90.949219 61.859375 94.476562 63.460938 98.375 63.507812 C 102.273438 63.554688 104.871094 61.90625 104.9375 59.042969 C 104.96875 55.90625 98.632812 53.492188 96.777344 52.574219 C 94.917969 51.65625 89.941406 48.527344 89.925781 42.875 Z M 89.925781 42.875 "/>
<path style=" stroke:none;fill-rule:nonzero;fill:rgb(0%,29.411765%,55.686275%);fill-opacity:1;" d="M 72.734375 70.128906 L 78.683594 38.175781 L 87.542969 38.175781 C 89.214844 32.957031 92.226562 31.90625 95.164062 30.632812 L 61.902344 30.632812 L 60.429688 38.175781 L 69.847656 38.175781 L 64.078125 70.128906 Z M 72.734375 70.128906 "/>
<path style=" stroke:none;fill-rule:nonzero;fill:rgb(0%,29.411765%,55.686275%);fill-opacity:1;" d="M 26.351562 70.128906 L 52.644531 70.128906 L 53.953125 62.71875 L 36.53125 62.71875 L 38.273438 53.628906 L 53.898438 53.628906 L 55.203125 46.277344 L 39.691406 46.277344 L 41.105469 38.175781 L 57.546875 38.175781 L 59.070312 30.632812 L 33.648438 30.632812 Z M 26.351562 70.128906 "/>
<path style=" stroke:none;fill-rule:nonzero;fill:rgb(54.117647%,14.509804%,16.078431%);fill-opacity:1;" d="M 44.207031 24.175781 C 44.207031 24.175781 64.425781 -0.304688 100.390625 0.00390625 C 131.820312 0.269531 144.523438 18.261719 144.921875 35.824219 C 145.3125 53.113281 124.777344 70.128906 124.777344 70.128906 C 124.777344 70.128906 134.933594 55.8125 134.796875 40.289062 C 134.628906 21.417969 121.714844 7.648438 94.402344 7.1875 C 67.304688 6.734375 44.207031 24.175781 44.207031 24.175781 Z M 44.207031 24.175781 "/>
<path style=" stroke:none;fill-rule:nonzero;fill:rgb(0%,29.411765%,55.686275%);fill-opacity:1;" d="M 48.234375 13.414062 C 29.132812 19.503906 -0.148438 40.253906 0 64.507812 C 0.125 84.964844 18.839844 99.882812 50.503906 99.925781 C 98.996094 99.988281 123.800781 70.78125 123.800781 70.78125 C 123.800781 70.78125 98.90625 92.125 57.816406 93.316406 C 38.160156 93.886719 10.355469 85.957031 10.78125 61.847656 C 11.3125 31.785156 48.234375 13.414062 48.234375 13.414062 Z M 48.234375 13.414062 "/>
<path style=" stroke:none;fill-rule:nonzero;fill:rgb(0%,29.411765%,55.686275%);fill-opacity:1;" d="M 138.71875 78.78125 L 137.609375 78.78125 L 137.050781 77.121094 C 136.941406 76.789062 136.789062 76.542969 136.597656 76.375 C 136.40625 76.207031 136.148438 76.125 135.824219 76.125 L 134.527344 76.125 L 134.527344 78.78125 L 133.503906 78.78125 L 133.503906 72.269531 L 136.230469 72.269531 C 136.558594 72.269531 136.859375 72.300781 137.132812 72.359375 C 137.410156 72.421875 137.644531 72.523438 137.84375 72.664062 C 138.039062 72.808594 138.195312 72.996094 138.304688 73.230469 C 138.414062 73.464844 138.46875 73.757812 138.46875 74.109375 C 138.46875 74.566406 138.351562 74.9375 138.117188 75.226562 C 137.886719 75.515625 137.554688 75.703125 137.125 75.789062 C 137.347656 75.882812 137.539062 76.03125 137.691406 76.238281 C 137.847656 76.445312 137.984375 76.710938 138.097656 77.042969 Z M 134.527344 75.203125 L 136.125 75.203125 C 136.351562 75.203125 136.542969 75.183594 136.707031 75.144531 C 136.871094 75.105469 137.003906 75.046875 137.109375 74.960938 C 137.214844 74.878906 137.289062 74.773438 137.339844 74.640625 C 137.390625 74.503906 137.414062 74.34375 137.414062 74.15625 C 137.414062 73.816406 137.320312 73.5625 137.125 73.394531 C 136.933594 73.226562 136.636719 73.144531 136.230469 73.144531 L 134.527344 73.144531 Z M 134.527344 75.203125 "/>
<path style="fill:none;stroke-width:1;stroke-linecap:butt;stroke-linejoin:miter;stroke:rgb(0%,29.411765%,55.686275%);stroke-opacity:1;stroke-miterlimit:4;" d="M 259.819941 349.507123 C 259.819941 354.241341 255.982415 358.078685 251.247972 358.078685 C 246.513529 358.078685 242.676003 354.241341 242.676003 349.507123 C 242.676003 344.772904 246.513529 340.93556 251.247972 340.93556 C 255.982415 340.93556 259.819941 344.772904 259.819941 349.507123 Z M 259.819941 349.507123 " transform="matrix(0.609727,0,0,0.609756,-17.091151,-137.543787)"/>
<path style=" stroke:none;fill-rule:nonzero;fill:rgb(0%,29.411765%,55.686275%);fill-opacity:1;" d="M 510.808594 93.832031 L 509.699219 93.832031 L 509.144531 92.171875 C 509.03125 91.839844 508.878906 91.59375 508.6875 91.425781 C 508.496094 91.261719 508.238281 91.175781 507.914062 91.175781 L 506.621094 91.175781 L 506.621094 93.832031 L 505.597656 93.832031 L 505.597656 87.320312 L 508.324219 87.320312 C 508.648438 87.320312 508.949219 87.351562 509.226562 87.410156 C 509.5 87.472656 509.734375 87.574219 509.933594 87.71875 C 510.132812 87.859375 510.285156 88.046875 510.394531 88.285156 C 510.507812 88.519531 510.5625 88.8125 510.5625 89.160156 C 510.5625 89.617188 510.445312 89.992188 510.210938 90.277344 C 509.976562 90.566406 509.644531 90.753906 509.214844 90.839844 C 509.4375 90.933594 509.628906 91.082031 509.785156 91.289062 C 509.941406 91.496094 510.074219 91.765625 510.191406 92.09375 Z M 506.621094 90.253906 L 508.214844 90.253906 C 508.441406 90.253906 508.636719 90.234375 508.800781 90.199219 C 508.960938 90.160156 509.097656 90.097656 509.199219 90.015625 C 509.304688 89.933594 509.382812 89.824219 509.429688 89.691406 C 509.480469 89.558594 509.503906 89.398438 509.503906 89.207031 C 509.503906 88.867188 509.410156 88.613281 509.21875 88.445312 C 509.027344 88.277344 508.726562 88.195312 508.324219 88.195312 L 506.621094 88.195312 Z M 506.621094 90.253906 "/>
<path style="fill:none;stroke-width:1;stroke-linecap:butt;stroke-linejoin:miter;stroke:rgb(0%,29.411765%,55.686275%);stroke-opacity:1;stroke-miterlimit:4;" d="M 259.824238 349.504801 C 259.824238 354.239019 255.986712 358.076363 251.252269 358.076363 C 246.517825 358.076363 242.6803 354.239019 242.6803 349.504801 C 242.6803 344.770582 246.517825 340.933238 251.252269 340.933238 C 255.986712 340.933238 259.824238 344.770582 259.824238 349.504801 Z M 259.824238 349.504801 " transform="matrix(0.609727,0,0,0.609756,354.999979,-122.49159)"/>
<path style=" stroke:none;fill-rule:nonzero;fill:rgb(0%,29.411765%,55.686275%);fill-opacity:1;" d="M 285.160156 2.757812 C 251.746094 2.757812 235.4375 33.484375 235.734375 59.273438 C 236.046875 86.117188 254.796875 97.460938 272.242188 97.460938 C 306.640625 97.457031 321.136719 66.648438 321.191406 41.570312 C 321.234375 23.84375 314.136719 2.757812 285.160156 2.757812 Z M 282.800781 16.09375 C 300.863281 16.121094 304.269531 29.460938 304.425781 40.789062 C 304.667969 58.328125 295.71875 84.433594 274.703125 84.21875 C 256.429688 84.03125 252.667969 70.023438 252.675781 58.816406 C 252.691406 35.867188 265.382812 16.074219 282.800781 16.09375 Z M 282.800781 16.09375 "/>
<path style=" stroke:none;fill-rule:nonzero;fill:rgb(0%,29.411765%,55.686275%);fill-opacity:1;" d="M 202.792969 96.039062 L 217.417969 17.695312 L 242.671875 17.695312 L 245.445312 3.921875 L 178.617188 3.921875 L 176.152344 17.695312 L 201.40625 17.695312 L 186.777344 96.039062 Z M 202.792969 96.039062 "/>
<path style=" stroke:none;fill-rule:nonzero;fill:rgb(0%,29.411765%,55.686275%);fill-opacity:1;" d="M 319.507812 96.039062 L 337.214844 3.921875 L 388.183594 3.921875 L 385.566406 17.695312 L 350.304688 17.695312 L 345.839844 41.71875 L 378.789062 41.71875 L 376.25 54.808594 L 343.410156 54.808594 L 338.292969 82.371094 L 374.941406 82.371094 L 372.371094 96.039062 Z M 319.507812 96.039062 "/>
<path style=" stroke:none;fill-rule:nonzero;fill:rgb(0%,29.411765%,55.686275%);fill-opacity:1;" d="M 383.140625 96.039062 L 400.769531 3.921875 L 451.4375 3.921875 L 448.851562 17.695312 L 414.0625 17.695312 L 409.046875 43.414062 L 441.382812 43.414062 L 438.378906 57.117188 L 406.339844 57.117188 L 399.113281 96.039062 Z M 383.140625 96.039062 "/>
<path style=" stroke:none;fill-rule:nonzero;fill:rgb(0%,29.411765%,55.686275%);fill-opacity:1;" d="M 443.035156 96.039062 L 460.566406 3.921875 L 476.789062 3.921875 L 461.542969 82.371094 L 497.691406 82.371094 L 495.1875 96.039062 Z M 443.035156 96.039062 "/>
</g>
</svg>
