<?xml version="1.0" encoding="utf-8"?>
<!-- Generator: Adobe Illustrator 15.1.0, SVG Export Plug-In . SVG Version: 6.00 Build 0)  -->
<!DOCTYPE svg PUBLIC "-//W3C//DTD SVG 1.1//EN" "http://www.w3.org/Graphics/SVG/1.1/DTD/svg11.dtd">
<svg version="1.1" id="Capa_1" xmlns="http://www.w3.org/2000/svg" xmlns:xlink="http://www.w3.org/1999/xlink" x="0px" y="0px"
	 width="300px" height="300px" viewBox="0 0 300 300" enable-background="new 0 0 300 300" xml:space="preserve">
<g>
	<path d="M85.252,31.578h129.306v38.795H85.252V31.578z M182.616,160.846l-65.042,0.034c-17.813-0.07-32.237-14.508-32.257-32.322
		l-0.065-49.44h42.969v49.437h43.361V79.118h42.98v47.354c0.041,0.673,0.061,1.361,0.061,2.053
		C214.623,146.268,200.321,160.673,182.616,160.846"/>
	<path fill="#A41E2E" d="M85.252,31.578h129.306v38.795H85.252V31.578z M182.616,160.846l-65.042,0.034
		c-17.813-0.07-32.237-14.508-32.257-32.322l-0.065-49.44h42.969v49.437h43.361V79.118h42.98v47.354
		c0.041,0.673,0.061,1.361,0.061,2.053C214.623,146.268,200.321,160.673,182.616,160.846z"/>
	<path fill="#9B9DA0" d="M101.143,169.549h8.011l19.537,41.394h-10.405l-3.833-8.133H96.044l-3.757,8.133H81.936L101.143,169.549z
		 M105.15,183.104l-5.645,12.198h11.403L105.15,183.104z"/>
	<path fill="#9B9DA0" d="M196.229,171.752v10.092c-5.185-2.692-9.726-4.037-13.618-4.037c-3.902,0-7.017,1.159-9.356,3.471
		c-2.338,2.307-3.504,5.423-3.504,9.333c0,3.695,1.226,6.655,3.686,8.867c2.463,2.225,5.745,3.332,9.862,3.332
		c3.603,0,7.911-1.251,12.931-3.752v10.023c-5.628,1.62-10.309,2.429-14.063,2.429c-6.449,0-11.933-2.046-16.437-6.129
		c-4.505-4.089-6.754-9.074-6.754-14.959c0-5.993,2.292-11.06,6.879-15.216c4.59-4.146,10.175-6.231,16.756-6.231
		C186.848,168.975,191.384,169.904,196.229,171.752"/>
	<path fill="#9B9DA0" d="M217.663,169.549h8.014l19.536,41.394h-10.402l-3.84-8.133h-18.404l-3.76,8.133h-10.351L217.663,169.549z
		 M221.672,183.104l-5.642,12.198h11.403L221.672,183.104z"/>
	<path fill="#9B9DA0" d="M162.892,207.996c-2.002-1.809-3.525-3.813-4.641-5.977h-14.802v-32.474h-10.263v41.397h33.732
		C165.503,210.119,164.154,209.149,162.892,207.996"/>
	<polygon fill="#9B9DA0" points="85.457,169.547 53.59,169.547 53.59,178.344 64.51,178.344 64.51,210.94 74.85,210.94 
		74.85,178.344 85.423,178.344 	"/>
	<path fill="#9B9DA0" d="M64.789,219.549h4.322v11.209c0,1.039,0.321,1.878,0.961,2.506c0.643,0.636,1.484,0.953,2.534,0.953
		c1.197,0,2.125-0.317,2.787-0.958c0.663-0.635,0.993-1.531,0.993-2.696v-11.014h4.311v11.864c0,1.042-0.301,2.123-0.901,3.243
		c-0.594,1.119-1.521,1.98-2.767,2.575c-1.246,0.593-2.639,0.893-4.18,0.893c-2.787,0-4.832-0.701-6.12-2.099
		c-1.293-1.401-1.939-2.875-1.939-4.418V219.549z"/>
	<polygon fill="#9B9DA0" points="98.086,219.549 102.383,219.549 102.383,237.871 98.106,237.871 88.801,226.011 88.801,237.871 
		84.41,237.871 84.41,219.549 88.75,219.549 98.086,231.327 	"/>
	<rect x="105.943" y="219.549" fill="#9B9DA0" width="4.391" height="18.322"/>
	<polygon fill="#9B9DA0" points="112.416,219.549 116.857,219.549 122.004,231.732 127.163,219.549 131.617,219.549 
		123.904,237.871 120.099,237.871 	"/>
	<polygon fill="#9B9DA0" points="133.96,219.549 145.42,219.549 145.42,223.178 138.351,223.178 138.351,226.876 145.42,226.876 
		145.42,230.452 138.351,230.452 138.351,234.245 145.42,234.245 145.42,237.871 133.96,237.871 	"/>
	<path fill="#9B9DA0" d="M148.776,219.548h6.71c2.037,0,3.652,0.483,4.832,1.45c1.186,0.969,1.78,2.274,1.78,3.923
		c0,0.938-0.275,1.912-0.819,2.929c-0.543,1.012-1.538,1.806-3,2.385l5.699,7.638h-5.045l-5.267-7.087h-0.495v7.087h-4.396V219.548z
		 M153.194,222.814v4.771h0.956c2.292,0,3.436-0.84,3.436-2.522c0-0.69-0.296-1.235-0.894-1.644
		c-0.597-0.404-1.428-0.605-2.482-0.605H153.194z"/>
	<path fill="#9B9DA0" d="M178.453,221.208l-2.73,2.697c-1.436-0.767-2.474-1.145-3.099-1.145c-0.49,0-0.907,0.163-1.258,0.495
		c-0.353,0.328-0.529,0.72-0.529,1.179c0,0.899,0.916,1.681,2.73,2.342c1.334,0.512,2.344,0.978,3.023,1.392
		c0.685,0.414,1.253,0.987,1.714,1.724c0.461,0.731,0.691,1.526,0.691,2.386c0,1.575-0.708,2.94-2.118,4.103
		c-1.41,1.164-3.08,1.744-4.999,1.744c-2.108,0-4.192-0.895-6.248-2.679l2.88-3.028c1.294,1.197,2.503,1.8,3.629,1.8
		c0.532,0,1.035-0.21,1.519-0.633c0.489-0.423,0.733-0.867,0.733-1.327c0-0.955-1.12-1.8-3.366-2.53
		c-1.286-0.42-2.193-0.816-2.73-1.183c-0.54-0.364-0.989-0.903-1.354-1.607c-0.37-0.699-0.552-1.422-0.552-2.152
		c0-1.631,0.586-2.949,1.764-3.966c1.183-1.011,2.721-1.521,4.623-1.521C175.034,219.298,176.924,219.933,178.453,221.208"/>
	<rect x="181.606" y="219.549" fill="#9B9DA0" width="4.391" height="18.322"/>
	<path fill="#9B9DA0" d="M189.663,219.55h6.95c2.963,0,5.352,0.842,7.163,2.523c1.806,1.685,2.71,3.903,2.71,6.658
		c0,2.765-0.933,4.979-2.798,6.643c-1.862,1.666-4.351,2.498-7.453,2.498h-6.572V219.55z M194.082,223.01v11.319h1.735
		c1.803,0,3.281-0.443,4.436-1.327c1.16-0.884,1.74-2.356,1.74-4.421c0-1.203-0.278-2.263-0.836-3.192
		c-0.563-0.926-1.37-1.552-2.429-1.884c-1.063-0.332-2.072-0.495-3.031-0.495H194.082z"/>
	<path fill="#9B9DA0" d="M214.449,219.549h3.401l8.292,18.322h-4.419l-1.627-3.599h-7.814l-1.593,3.599h-4.396L214.449,219.549z
		 M216.15,225.551l-2.395,5.401h4.84L216.15,225.551z"/>
	<path fill="#9B9DA0" d="M228.822,219.55h6.943c2.964,0,5.358,0.842,7.166,2.523c1.809,1.685,2.714,3.903,2.714,6.658
		c0,2.765-0.933,4.979-2.805,6.643c-1.862,1.666-4.345,2.498-7.45,2.498h-6.568V219.55z M233.24,223.01v11.319h1.735
		c1.797,0,3.275-0.443,4.431-1.327c1.16-0.884,1.74-2.356,1.74-4.421c0-1.203-0.279-2.263-0.836-3.192
		c-0.563-0.926-1.371-1.552-2.429-1.884c-1.064-0.332-2.07-0.495-3.031-0.495H233.24z"/>
	
		<line fill="#9B9DA0" stroke="#919191" stroke-width="2" stroke-miterlimit="3.864" x1="64.549" y1="243.209" x2="244.866" y2="243.209"/>
	<path fill="#9B9DA0" d="M136.093,252.802v2.501c-1.752-0.853-3.35-1.28-4.82-1.28c-1.877,0-3.467,0.605-4.749,1.823
		c-1.288,1.214-1.937,2.708-1.937,4.479c0,1.8,0.66,3.303,1.979,4.508s2.969,1.811,4.945,1.811c1.445,0,2.972-0.45,4.582-1.356
		v2.531c-1.468,0.777-3.057,1.167-4.767,1.167c-2.511,0-4.652-0.848-6.433-2.548c-1.78-1.697-2.673-3.745-2.673-6.141
		c0-2.356,0.882-4.371,2.627-6.043c1.752-1.681,3.856-2.516,6.325-2.516C132.754,251.737,134.395,252.093,136.093,252.802"/>
	<polygon fill="#9B9DA0" points="138.538,252.245 140.745,252.245 140.745,258.475 148.491,258.475 148.491,252.245 
		150.675,252.245 150.675,268.436 148.491,268.436 148.491,260.658 140.745,260.658 140.745,268.436 138.538,268.436 	"/>
	<rect x="153.889" y="252.245" fill="#9B9DA0" width="2.184" height="16.19"/>
	<polygon fill="#9B9DA0" points="159.685,252.245 161.874,252.245 161.874,266.249 167.146,266.249 167.146,268.436 
		159.685,268.436 	"/>
	<polygon fill="#9B9DA0" points="168.943,252.245 177.919,252.245 177.919,254.456 171.127,254.456 171.127,258.497 
		177.919,258.497 177.919,260.684 171.127,260.684 171.127,266.249 177.919,266.249 177.919,268.436 168.943,268.436 	"/>
</g>
</svg>
